<?xml version="1.0" encoding="utf-8"?><svg version="1.1" id="Layer_1" xmlns="http://www.w3.org/2000/svg" xmlns:xlink="http://www.w3.org/1999/xlink" x="0px" y="0px" viewBox="0 0 115.943 55.211" enable-background="new 0 0 115.943 55.211" xml:space="preserve"><g><path fill="#005A9C" d="M27.452,0.309l9.828,33.416l9.829-33.416h7.117h19.53V3.63L63.723,20.913 c3.525,1.132,6.191,3.188,7.998,6.169c1.807,2.982,2.711,6.484,2.711,10.505c0,4.971-1.32,9.15-3.963,12.539 c-2.645,3.391-6.068,5.084-10.27,5.084c-3.165,0-5.921-1.006-8.269-3.016c-2.35-2.012-4.089-4.732-5.219-8.17l5.557-2.303 c0.814,2.078,1.888,3.717,3.221,4.914c1.333,1.197,2.903,1.795,4.71,1.795c1.898,0,3.502-1.063,4.813-3.186 c1.311-2.125,1.967-4.676,1.967-7.658c0-3.299-0.703-5.854-2.102-7.66c-1.629-2.123-4.182-3.185-7.662-3.185h-2.71v-3.252 l9.491-16.405H52.541l-0.652,1.109L37.958,55.209l-0.677,0.002L27.112,21.186L16.944,55.211h-0.677L0,0.309h7.117l9.829,33.416 l6.644-22.501L20.337,0.309H27.452L27.452,0.309z"/><path fill-rule="evenodd" clip-rule="evenodd" d="M110.742,0.309c-1.398,0-2.652,0.503-3.604,1.47 c-1.008,1.024-1.57,2.349-1.57,3.717c0,1.369,0.535,2.637,1.514,3.632c0.996,1.009,2.277,1.557,3.662,1.557 c1.352,0,2.664-0.548,3.688-1.541c0.98-0.951,1.512-2.221,1.512-3.647c0-1.384-0.547-2.679-1.498-3.645 C113.451,0.841,112.152,0.309,110.742,0.309L110.742,0.309z M115.252,5.54c0,1.196-0.463,2.306-1.313,3.126 c-0.893,0.866-2.002,1.326-3.227,1.326c-1.152,0-2.291-0.475-3.141-1.34c-0.85-0.863-1.326-1.975-1.326-3.155 c0-1.181,0.49-2.334,1.369-3.228c0.82-0.836,1.93-1.282,3.141-1.282c1.238,0,2.348,0.463,3.213,1.34 C114.805,3.163,115.252,4.287,115.252,5.54L115.252,5.54z M110.887,2.456h-2.219v5.879h1.109V5.828h1.096l1.197,2.507h1.238 l-1.313-2.681c0.85-0.172,1.34-0.749,1.34-1.584C113.336,3.003,112.529,2.456,110.887,2.456L110.887,2.456z M110.684,3.176 c1.037,0,1.512,0.289,1.512,1.009c0,0.691-0.475,0.937-1.484,0.937h-0.938V3.176H110.684L110.684,3.176z"/><path d="M102.016,0l1.154,7.009l-4.082,7.808c0,0-1.566-3.313-4.168-5.146c-2.193-1.544-3.623-1.88-5.855-1.42 c-2.869,0.592-6.123,4.023-7.543,8.252c-1.697,5.06-1.715,7.509-1.775,9.758C79.65,29.867,80.219,32,80.219,32 s-2.477-4.584-2.453-11.298c0.016-4.792,0.77-9.137,2.986-13.426c1.951-3.77,4.85-6.033,7.424-6.299 c2.66-0.274,4.764,1.007,6.389,2.396c1.705,1.458,3.43,4.642,3.43,4.642L102.016,0L102.016,0z"/><path d="M102.52,39.658c0,0-1.805,3.225-2.928,4.467c-1.125,1.242-3.135,3.432-5.617,4.525c-2.486,1.094-3.787,1.301-6.24,1.064 s-4.732-1.656-5.531-2.248s-2.84-2.336-3.992-3.963c-1.154-1.627-2.957-4.879-2.957-4.879s1.004,3.262,1.635,4.645 c0.361,0.795,1.475,3.232,3.055,5.352c1.471,1.979,4.334,5.383,8.68,6.15c4.348,0.77,7.334-1.182,8.072-1.656 c0.74-0.473,2.297-1.777,3.285-2.832c1.027-1.102,2.002-2.506,2.543-3.348c0.393-0.615,1.035-1.865,1.035-1.865L102.52,39.658 L102.52,39.658z"/></g></svg>